<?xml version="1.0" encoding="utf-8"?>
<!-- Generator: Adobe Illustrator 16.0.0, SVG Export Plug-In . SVG Version: 6.00 Build 0)  -->
<!DOCTYPE svg PUBLIC "-//W3C//DTD SVG 1.1//EN" "http://www.w3.org/Graphics/SVG/1.1/DTD/svg11.dtd">
<svg version="1.1" id="Capa_1" xmlns="http://www.w3.org/2000/svg" xmlns:xlink="http://www.w3.org/1999/xlink" x="0px" y="0px"
	 width="25px" height="25px" viewBox="243 243 25 25" enable-background="new 243 243 25 25" xml:space="preserve">
<g>
	<path fill="#FFFFFF" d="M267.85,250.385c-0.058-1.319-0.272-2.226-0.576-3.012c-0.315-0.835-0.8-1.582-1.437-2.203
		c-0.621-0.63-1.372-1.12-2.197-1.431c-0.791-0.306-1.693-0.519-3.013-0.577c-1.329-0.063-1.751-0.077-5.123-0.077
		c-3.371,0-3.793,0.014-5.117,0.072c-1.32,0.059-2.226,0.271-3.012,0.577c-0.834,0.315-1.582,0.801-2.202,1.436
		c-0.631,0.621-1.121,1.373-1.432,2.197c-0.305,0.792-0.519,1.693-0.577,3.013c-0.063,1.329-0.078,1.752-0.078,5.122
		s0.015,3.794,0.073,5.116c0.059,1.321,0.271,2.228,0.578,3.013c0.315,0.836,0.805,1.582,1.436,2.202
		c0.62,0.631,1.373,1.122,2.197,1.432c0.791,0.306,1.692,0.519,3.013,0.578c1.324,0.058,1.746,0.072,5.117,0.072
		c3.371,0,3.792-0.015,5.117-0.072c1.32-0.06,2.227-0.272,3.013-0.578c1.668-0.646,2.989-1.965,3.633-3.634
		c0.306-0.789,0.521-1.691,0.578-3.013c0.057-1.322,0.072-1.746,0.072-5.116S267.908,251.709,267.85,250.385z M265.613,260.521
		c-0.053,1.214-0.256,1.868-0.426,2.305c-0.418,1.082-1.276,1.94-2.358,2.358c-0.437,0.17-1.096,0.373-2.304,0.427
		c-1.311,0.059-1.702,0.072-5.016,0.072c-3.313,0-3.71-0.014-5.015-0.072c-1.212-0.054-1.868-0.257-2.304-0.427
		c-0.538-0.2-1.028-0.515-1.426-0.928c-0.412-0.401-0.728-0.887-0.927-1.427c-0.169-0.437-0.373-1.095-0.427-2.304
		c-0.058-1.309-0.073-1.702-0.073-5.015s0.015-3.711,0.073-5.016c0.054-1.213,0.257-1.867,0.427-2.304
		c0.199-0.538,0.515-1.028,0.932-1.426c0.402-0.412,0.887-0.728,1.426-0.927c0.436-0.17,1.097-0.373,2.304-0.427
		c1.31-0.059,1.703-0.073,5.016-0.073c3.317,0,3.71,0.015,5.014,0.073c1.213,0.054,1.869,0.257,2.306,0.427
		c0.538,0.199,1.027,0.515,1.426,0.927c0.412,0.402,0.728,0.888,0.927,1.426c0.17,0.437,0.373,1.097,0.426,2.304
		c0.06,1.31,0.072,1.703,0.072,5.016S265.673,259.212,265.613,260.521z"/>
	<path fill="#FFFFFF" d="M255.504,249.124c-3.521,0-6.378,2.856-6.378,6.378c0,3.522,2.857,6.379,6.378,6.379
		c3.522,0,6.379-2.856,6.379-6.379C261.884,251.98,259.026,249.124,255.504,249.124z M255.504,259.641
		c-2.284,0-4.137-1.854-4.137-4.139c0-2.284,1.854-4.138,4.137-4.138c2.285,0,4.138,1.854,4.138,4.138
		C259.643,257.787,257.789,259.641,255.504,259.641z"/>
	<path fill="#FFFFFF" d="M263.625,248.871c0,0.822-0.666,1.489-1.488,1.489c-0.823,0-1.49-0.667-1.49-1.489
		c0-0.821,0.667-1.488,1.49-1.488C262.959,247.383,263.625,248.05,263.625,248.871z"/>
</g>
</svg>
