<?xml version="1.0" encoding="utf-8"?>
<!-- Generator: Adobe Illustrator 16.0.0, SVG Export Plug-In . SVG Version: 6.00 Build 0)  -->
<!DOCTYPE svg PUBLIC "-//W3C//DTD SVG 1.1//EN" "http://www.w3.org/Graphics/SVG/1.1/DTD/svg11.dtd">
<svg version="1.1" id="Capa_1" xmlns="http://www.w3.org/2000/svg" xmlns:xlink="http://www.w3.org/1999/xlink" x="0px" y="0px"
	 width="25px" height="25px" viewBox="328.5 328.5 25 25" enable-background="new 328.5 328.5 25 25" xml:space="preserve">
<path fill="#FFFFFF" d="M353.171,334.894c-0.293-1.087-1.15-1.945-2.237-2.238c-1.987-0.543-9.934-0.543-9.934-0.543
	s-7.947,0-9.934,0.522c-1.066,0.293-1.945,1.171-2.237,2.259c-0.522,1.986-0.522,6.106-0.522,6.106s0,4.141,0.522,6.105
	c0.293,1.088,1.15,1.946,2.238,2.238c2.007,0.544,9.934,0.544,9.934,0.544s7.946,0,9.934-0.523c1.087-0.292,1.944-1.149,2.237-2.237
	c0.523-1.986,0.523-6.106,0.523-6.106S353.714,336.88,353.171,334.894z M338.469,344.807v-7.613l6.608,3.806L338.469,344.807z"/>
</svg>
