<?xml version="1.0" encoding="utf-8"?>
<!-- Generator: Adobe Illustrator 16.0.0, SVG Export Plug-In . SVG Version: 6.00 Build 0)  -->
<!DOCTYPE svg PUBLIC "-//W3C//DTD SVG 1.1//EN" "http://www.w3.org/Graphics/SVG/1.1/DTD/svg11.dtd">
<svg version="1.1" id="Layer_1" xmlns="http://www.w3.org/2000/svg" xmlns:xlink="http://www.w3.org/1999/xlink" x="0px" y="0px"
	 width="25px" height="25px" viewBox="243.5 243.5 25 25" enable-background="new 243.5 243.5 25 25" xml:space="preserve">
<g id="_x31_0.Linkedin">
	<path fill="#FFFFFF" d="M268.434,268.435v-9.108c0-4.477-0.964-7.896-6.186-7.896c-2.518,0-4.196,1.367-4.88,2.673h-0.063v-2.27
		h-4.942v16.601h5.159v-8.238c0-2.176,0.405-4.259,3.078-4.259c2.643,0,2.674,2.456,2.674,4.383v8.083h5.159V268.435z"/>
	<path fill="#FFFFFF" d="M243.971,251.834h5.16v16.601h-5.16V251.834z"/>
	<path fill="#FFFFFF" d="M246.55,243.565c-1.647,0-2.983,1.337-2.983,2.984s1.336,3.016,2.983,3.016s2.984-1.368,2.984-3.016
		S248.197,243.565,246.55,243.565L246.55,243.565z"/>
</g>
</svg>
