<?xml version="1.0" encoding="utf-8"?>
<!-- Generator: Adobe Illustrator 16.0.0, SVG Export Plug-In . SVG Version: 6.00 Build 0)  -->
<!DOCTYPE svg PUBLIC "-//W3C//DTD SVG 1.1//EN" "http://www.w3.org/Graphics/SVG/1.1/DTD/svg11.dtd">
<svg version="1.1" id="Capa_1" xmlns="http://www.w3.org/2000/svg" xmlns:xlink="http://www.w3.org/1999/xlink" x="0px" y="0px"
	 width="25px" height="25px" viewBox="243.5 243.5 25 25" enable-background="new 243.5 243.5 25 25" xml:space="preserve">
<g>
	<path fill="#FFFFFF" d="M266.177,250.202c-1.327,0-2.551-0.439-3.534-1.181c-1.127-0.85-1.937-2.097-2.223-3.534
		c-0.071-0.355-0.109-0.721-0.113-1.097h-3.789v10.355l-0.005,5.672c0,1.517-0.987,2.803-2.356,3.255
		c-0.397,0.131-0.827,0.193-1.273,0.169c-0.57-0.031-1.104-0.204-1.569-0.481c-0.988-0.592-1.659-1.664-1.677-2.891
		c-0.028-1.917,1.521-3.48,3.438-3.48c0.378,0,0.741,0.062,1.082,0.174v-2.83v-1.018c-0.359-0.053-0.724-0.081-1.093-0.081
		c-2.097,0-4.059,0.872-5.46,2.442c-1.06,1.187-1.695,2.701-1.793,4.289c-0.128,2.085,0.635,4.068,2.115,5.531
		c0.217,0.215,0.446,0.414,0.685,0.598c1.269,0.977,2.82,1.506,4.455,1.506c0.369,0,0.734-0.027,1.093-0.08
		c1.526-0.227,2.934-0.925,4.046-2.023c1.365-1.351,2.12-3.142,2.128-5.05l-0.02-8.47c0.651,0.503,1.364,0.918,2.128,1.241
		c1.189,0.502,2.45,0.756,3.748,0.756v-2.752v-1.021C266.188,250.202,266.178,250.202,266.177,250.202L266.177,250.202z"/>
</g>
</svg>
