<?xml version="1.0" encoding="utf-8"?>
<!-- Generator: Adobe Illustrator 16.0.0, SVG Export Plug-In . SVG Version: 6.00 Build 0)  -->
<!DOCTYPE svg PUBLIC "-//W3C//DTD SVG 1.1//EN" "http://www.w3.org/Graphics/SVG/1.1/DTD/svg11.dtd">
<svg version="1.1" id="Capa_1" xmlns="http://www.w3.org/2000/svg" xmlns:xlink="http://www.w3.org/1999/xlink" x="0px" y="0px"
	 width="25px" height="25px" viewBox="0 0 25 25" enable-background="new 0 0 25 25" xml:space="preserve">
<g>
	<g>
		<path fill="#FFFFFF" d="M22.994,16.41c-1.531,0-3.033-0.24-4.458-0.711c-0.698-0.238-1.556-0.02-1.981,0.418l-2.811,2.122
			c-3.26-1.74-5.269-3.747-6.985-6.983l2.06-2.738c0.535-0.534,0.727-1.315,0.497-2.047C8.843,5.04,8.603,3.537,8.603,2.006
			C8.603,0.9,7.703,0,6.597,0H2.006C0.9,0,0,0.9,0,2.006C0,14.686,10.315,25,22.994,25C24.1,25,25,24.1,25,22.994v-4.578
			C25,17.31,24.1,16.41,22.994,16.41z"/>
	</g>
</g>
</svg>
