<?xml version="1.0" encoding="utf-8"?>
<!-- Generator: Adobe Illustrator 16.0.0, SVG Export Plug-In . SVG Version: 6.00 Build 0)  -->
<!DOCTYPE svg PUBLIC "-//W3C//DTD SVG 1.1//EN" "http://www.w3.org/Graphics/SVG/1.1/DTD/svg11.dtd">
<svg version="1.1" id="Layer_1" xmlns="http://www.w3.org/2000/svg" xmlns:xlink="http://www.w3.org/1999/xlink" x="0px" y="0px"
	 width="25px" height="25px" viewBox="0 0 25 25" enable-background="new 0 0 25 25" xml:space="preserve">
<g>
	<g>
		<path fill="#EB4444" d="M21.289,2.93h-3.662V2.197C17.627,0.986,16.641,0,15.43,0H9.57C8.359,0,7.373,0.986,7.373,2.197V2.93
			H3.711c-1.211,0-2.197,0.986-2.197,2.197c0,0.973,0.636,1.8,1.514,2.088l1.307,15.771C4.428,24.115,5.39,25,6.523,25h11.953
			c1.134,0,2.096-0.885,2.189-2.016l1.307-15.77c0.878-0.288,1.514-1.115,1.514-2.088C23.486,3.916,22.5,2.93,21.289,2.93z
			 M8.838,2.197c0-0.404,0.329-0.732,0.732-0.732h5.859c0.404,0,0.732,0.329,0.732,0.732V2.93H8.838V2.197z M19.206,22.863
			c-0.031,0.377-0.352,0.672-0.729,0.672H6.523c-0.378,0-0.698-0.295-0.729-0.672L4.506,7.324h15.988L19.206,22.863z M21.289,5.859
			H3.711c-0.404,0-0.732-0.329-0.732-0.732s0.329-0.732,0.732-0.732h17.578c0.404,0,0.732,0.329,0.732,0.732
			S21.693,5.859,21.289,5.859z"/>
	</g>
</g>
<g>
	<g>
		<path fill="#EB4444" d="M9.569,21.293L8.836,9.476C8.812,9.072,8.462,8.765,8.06,8.791C7.656,8.815,7.35,9.163,7.375,9.567
			l0.732,11.816c0.024,0.389,0.346,0.688,0.73,0.688C9.261,22.07,9.595,21.713,9.569,21.293z"/>
	</g>
</g>
<g>
	<g>
		<path fill="#EB4444" d="M12.5,8.789c-0.404,0-0.732,0.328-0.732,0.732v11.816c0,0.404,0.328,0.732,0.732,0.732
			s0.732-0.328,0.732-0.732V9.521C13.232,9.117,12.904,8.789,12.5,8.789z"/>
	</g>
</g>
<g>
	<g>
		<path fill="#EB4444" d="M16.939,8.791c-0.402-0.025-0.751,0.282-0.775,0.686l-0.732,11.817c-0.025,0.403,0.281,0.751,0.686,0.775
			c0.403,0.025,0.751-0.281,0.775-0.686l0.732-11.816C17.65,9.163,17.344,8.815,16.939,8.791z"/>
	</g>
</g>
</svg>
