<?xml version="1.0" encoding="utf-8"?>
<!-- Generator: Adobe Illustrator 16.0.0, SVG Export Plug-In . SVG Version: 6.00 Build 0)  -->
<!DOCTYPE svg PUBLIC "-//W3C//DTD SVG 1.1//EN" "http://www.w3.org/Graphics/SVG/1.1/DTD/svg11.dtd">
<svg version="1.1" id="Capa_1" xmlns="http://www.w3.org/2000/svg" xmlns:xlink="http://www.w3.org/1999/xlink" x="0px" y="0px"
	 width="52px" height="52px" viewBox="230 230 52 52" enable-background="new 230 230 52 52" xml:space="preserve">
<path fill="#FFFFFF" d="M249.673,263.472c0.142-0.567,0.653-0.967,1.239-0.967h21.366c0.857,0.001,1.62-0.548,1.891-1.361
	l5.315-15.946c0.43-1.292-0.531-2.625-1.893-2.625h-32.115c-0.595,0-1.123-0.381-1.311-0.945l-1.889-5.664
	c-0.272-0.814-1.034-1.363-1.893-1.363h-5.979c-1.101,0-1.993,0.893-1.993,1.993c0,1.102,0.892,1.993,1.993,1.993h3.547
	c0.595,0,1.124,0.381,1.312,0.946l6.572,19.719c0.292,0.876,0.329,1.817,0.105,2.713l-0.541,2.17
	c-0.53,2.117,0.394,4.23,2.038,5.405c-1.757,0.415-3.066,1.99-3.066,3.875c0,2.201,1.785,3.986,3.987,3.986s3.987-1.785,3.987-3.986
	c0-1.163-0.501-2.207-1.296-2.935h18.538c-0.796,0.728-1.296,1.771-1.296,2.935c0,2.201,1.784,3.986,3.987,3.986
	c2.202,0,3.986-1.785,3.986-3.986c0-1.212-0.543-2.295-1.396-3.026c0.81-0.254,1.396-1.009,1.396-1.902
	c0-1.1-0.893-1.993-1.993-1.993h-23.92c-0.776,0-1.275-0.636-1.086-1.39L249.673,263.472z"/>
</svg>
