<?xml version="1.0" encoding="utf-8"?>
<!-- Generator: Adobe Illustrator 22.0.1, SVG Export Plug-In . SVG Version: 6.00 Build 0)  -->
<svg version="1.1" id="Calque_1" xmlns="http://www.w3.org/2000/svg" xmlns:xlink="http://www.w3.org/1999/xlink" x="0px" y="0px"
	 viewBox="0 0 96 96" style="enable-background:new 0 0 96 96;" xml:space="preserve">
<style type="text/css">
	.st0{display:none;}
	.st1{display:inline;fill:#00008F;}
	.st2{display:inline;fill:none;stroke:#CBCBCB;stroke-width:0.2;stroke-miterlimit:10;}
	.st3{display:inline;}
	.st4{fill:none;stroke:#CBCBCB;stroke-width:0.2;stroke-linecap:round;stroke-miterlimit:10;}
	.st5{display:inline;fill:none;stroke:#CBCBCB;stroke-width:0.2;stroke-linecap:round;stroke-miterlimit:10;}
	.st6{fill:none;stroke:#00008F;stroke-width:2;stroke-linecap:round;stroke-linejoin:round;stroke-miterlimit:10;}
	.st7{fill:none;stroke:#FFFFFF;stroke-linecap:round;stroke-linejoin:round;stroke-miterlimit:10;}
	.st8{fill:#FFFFFF;}
	.st9{fill:#00008F;}
</style>
<g id="bg" class="st0">
	<rect class="st1" width="96" height="96"/>
</g>
<g id="grid" class="st0">
	<path class="st2" d="M82,86H14c-2.2,0-4-1.8-4-4V14c0-2.2,1.8-4,4-4h68c2.2,0,4,1.8,4,4v68C86,84.2,84.2,86,82,86z"/>
	<path class="st2" d="M88,80H8c-2.2,0-4-1.8-4-4V20c0-2.2,1.8-4,4-4h80c2.2,0,4,1.8,4,4v56C92,78.2,90.2,80,88,80z"/>
	<path class="st2" d="M76,92H20c-2.2,0-4-1.8-4-4V8c0-2.2,1.8-4,4-4h56c2.2,0,4,1.8,4,4v80C80,90.2,78.2,92,76,92z"/>
	<circle class="st2" cx="48" cy="48" r="20"/>
	<g class="st3">
		<line class="st4" x1="0" y1="0" x2="96" y2="96"/>
	</g>
	<g class="st3">
		<line class="st4" x1="96" y1="0" x2="0" y2="96"/>
	</g>
	<line class="st5" x1="0" y1="48" x2="96" y2="48"/>
	<line class="st5" x1="48" y1="0" x2="48" y2="96"/>
</g>
<g id="blue_x5F_stroke_x5F_2px" class="st0">
	<g id="circle" class="st3">
	</g>
	<g class="st3">
		<g>
			<path class="st6" d="M52.9,14.9C48,8.8,40.4,5,32,5C17.1,5,5,17.1,5,32s12.1,27,27,27s27-12.1,27-27c0-4-0.9-7.7-2.4-11.1"/>
			<path class="st6" d="M43.1,81.1c5,6,12.5,9.9,20.9,9.9c14.9,0,27-12.1,27-27S78.9,37,64,37c-1.9,0-3.7,0.2-5.5,0.6
				c-2.2,10.5-10.5,18.8-21,21c-0.4,1.8-0.6,3.6-0.6,5.5c0,4,0.9,7.7,2.4,11.1"/>
			<polyline class="st6" points="43.1,88.5 43.1,81.2 50.5,81.2 			"/>
			<polyline class="st6" points="52.9,7.5 52.9,14.8 45.5,14.8 			"/>
		</g>
		<g>
			<line class="st6" x1="32" y1="14.8" x2="32" y2="49.2"/>
			<path class="st6" d="M24.5,40.4c0.6,2.8,3.7,5,7.5,5c4.2,0,7.6-2.7,7.6-6c0-0.5-0.1-1-0.3-1.5c-0.4-1-1.3-1.9-2.3-2.5L32,32
				l-5-3.3c-1-0.7-1.8-1.5-2.3-2.5c-0.2-0.5-0.3-1-0.3-1.5c0-3.3,3.4-6,7.6-6c3.8,0,6.9,2.2,7.5,5"/>
		</g>
		<g>
			<line class="st6" x1="64" y1="50.2" x2="64" y2="77.7"/>
			<path class="st6" d="M58,70.7c0.5,2.3,3,4,6,4c3.4,0,6.1-2.2,6.1-4.8c0-0.4-0.1-0.8-0.3-1.2c-0.4-0.8-1-1.5-1.8-2L64,64l-4-2.6
				c-0.8-0.5-1.5-1.2-1.8-2c-0.2-0.4-0.3-0.8-0.3-1.2c0-2.7,2.7-4.8,6.1-4.8c3,0,5.5,1.7,6,4"/>
		</g>
	</g>
</g>
<g id="white_x5F_stroke_x5F_1px" class="st0">
	<g id="circle_-_copie" class="st3">
	</g>
	<g class="st3">
		<g>
			<path class="st7" d="M52.9,14.9C48,8.8,40.4,5,32,5C17.1,5,5,17.1,5,32s12.1,27,27,27s27-12.1,27-27c0-4-0.9-7.7-2.4-11.1"/>
			<path class="st7" d="M43.1,81.1c5,6,12.5,9.9,20.9,9.9c14.9,0,27-12.1,27-27S78.9,37,64,37c-1.9,0-3.7,0.2-5.5,0.6
				c-2.2,10.5-10.5,18.8-21,21c-0.4,1.8-0.6,3.6-0.6,5.5c0,4,0.9,7.7,2.4,11.1"/>
			<polyline class="st7" points="43.1,88.5 43.1,81.2 50.5,81.2 			"/>
			<polyline class="st7" points="52.9,7.5 52.9,14.8 45.5,14.8 			"/>
		</g>
		<g>
			<line class="st7" x1="32" y1="14.8" x2="32" y2="49.2"/>
			<path class="st7" d="M24.5,40.4c0.6,2.8,3.7,5,7.5,5c4.2,0,7.6-2.7,7.6-6c0-0.5-0.1-1-0.3-1.5c-0.4-1-1.3-1.9-2.3-2.5L32,32
				l-5-3.3c-1-0.7-1.8-1.5-2.3-2.5c-0.2-0.5-0.3-1-0.3-1.5c0-3.3,3.4-6,7.6-6c3.8,0,6.9,2.2,7.5,5"/>
		</g>
		<g>
			<line class="st7" x1="64" y1="50.2" x2="64" y2="77.7"/>
			<path class="st7" d="M58,70.7c0.5,2.3,3,4,6,4c3.4,0,6.1-2.2,6.1-4.8c0-0.4-0.1-0.8-0.3-1.2c-0.4-0.8-1-1.5-1.8-2L64,64l-4-2.6
				c-0.8-0.5-1.5-1.2-1.8-2c-0.2-0.4-0.3-0.8-0.3-1.2c0-2.7,2.7-4.8,6.1-4.8c3,0,5.5,1.7,6,4"/>
		</g>
	</g>
</g>
<g id="white_x5F_svg_x5F_1px" class="st0">
	<g class="st3">
		<path class="st8" d="M64,36.4c-1.6,0-3.3,0.2-4.9,0.4c0.3-1.6,0.4-3.2,0.4-4.9c0-4-0.8-7.8-2.4-11.3c-0.1-0.3-0.4-0.4-0.7-0.2
			c-0.3,0.1-0.4,0.4-0.2,0.7c1.6,3.4,2.4,7.1,2.4,10.9c0,1.9-0.2,3.8-0.6,5.6c-0.1,0.5-0.2,0.9-0.3,1.4c-0.1,0.2-0.1,0.4-0.2,0.7
			c-0.1,0.3-0.2,0.6-0.3,1c-0.2,0.5-0.3,0.9-0.5,1.4c-0.1,0.1-0.1,0.3-0.2,0.4c-2.7,6.3-7.7,11.3-14,14c-0.2,0.1-0.3,0.1-0.5,0.2
			c-0.4,0.2-0.9,0.3-1.3,0.5c-0.3,0.1-0.7,0.2-1,0.3c-0.2,0.1-0.4,0.1-0.6,0.2c-0.5,0.1-1,0.3-1.5,0.4c-1.8,0.4-3.6,0.6-5.5,0.6
			C17.4,58.6,5.5,46.7,5.5,32S17.4,5.5,32,5.5c7.6,0,14.7,3.2,19.8,8.8h-6.2c-0.3,0-0.5,0.2-0.5,0.5s0.2,0.5,0.5,0.5h7.2
			c0.2,0.1,0.4,0.1,0.5-0.1c0.1-0.1,0.2-0.3,0.2-0.4l0,0V7.5C53.5,7.2,53.3,7,53,7s-0.5,0.2-0.5,0.5v6.1c-5.2-5.8-12.6-9-20.4-9
			C16.8,4.5,4.5,16.8,4.5,32S16.8,59.5,32,59.5c1.7,0,3.3-0.2,4.8-0.4c-0.3,1.6-0.4,3.2-0.4,4.9c0,4,0.8,7.8,2.4,11.4
			c0.1,0.3,0.4,0.4,0.7,0.2c0.3-0.1,0.4-0.4,0.2-0.7c-1.6-3.4-2.4-7.1-2.4-10.9c0-1.7,0.2-3.4,0.5-5c0.1,0,0.2-0.1,0.3-0.1
			c0.4-0.1,0.8-0.2,1.2-0.3c0.2-0.1,0.4-0.1,0.6-0.2c0.5-0.1,0.9-0.3,1.4-0.5c0.3-0.1,0.6-0.3,1-0.4c0.1-0.1,0.3-0.1,0.4-0.2
			c6.5-2.8,11.6-7.9,14.4-14.4c0.1-0.1,0.1-0.3,0.2-0.4c0.1-0.3,0.3-0.7,0.4-1c0.2-0.5,0.3-0.9,0.5-1.4c0.1-0.2,0.1-0.4,0.2-0.7
			c0.1-0.4,0.2-0.8,0.3-1.2c0-0.1,0.1-0.2,0.1-0.4c1.7-0.3,3.4-0.5,5-0.5c14.6,0,26.5,11.9,26.5,26.5S78.6,90.5,64,90.5
			c-7.6,0-14.7-3.2-19.8-8.8h6.2c0.3,0,0.5-0.2,0.5-0.5s-0.2-0.5-0.5-0.5h-7.2c-0.2-0.1-0.4-0.1-0.5,0.1c-0.1,0.1-0.2,0.3-0.2,0.4
			l0,0v7.4c0,0.3,0.2,0.5,0.5,0.5s0.5-0.2,0.5-0.5v-6.1c5.2,5.8,12.6,9,20.4,9c15.2,0,27.5-12.3,27.5-27.5
			C91.5,48.8,79.2,36.4,64,36.4z"/>
		<path class="st8" d="M32,49.7c0.3,0,0.5-0.2,0.5-0.5v-3.3c4.3-0.2,7.6-3,7.6-6.5c0-0.6-0.1-1.1-0.4-1.7c-0.5-1-1.3-2-2.5-2.8
			l-4.8-3.1V19.2c3.3,0.2,6,2,6.5,4.6c0.1,0.3,0.3,0.4,0.6,0.4c0.3-0.1,0.4-0.3,0.4-0.6c-0.6-3-3.8-5.2-7.5-5.4v-3.3
			c0-0.3-0.2-0.5-0.5-0.5s-0.5,0.2-0.5,0.5v3.3c-4.3,0.2-7.6,3-7.6,6.5c0,0.6,0.1,1.1,0.4,1.7c0.5,1,1.3,2,2.5,2.8l4.8,3.1v12.6
			c-3.3-0.2-6-2-6.5-4.6c-0.1-0.3-0.3-0.4-0.6-0.4C24.1,40,24,40.2,24,40.5c0.6,3,3.8,5.2,7.5,5.4v3.3C31.5,49.5,31.8,49.7,32,49.7z
			 M27.3,28.3c-1-0.7-1.7-1.5-2.1-2.3c-0.2-0.5-0.3-0.9-0.3-1.3c0-2.9,2.9-5.3,6.6-5.5v11.9L27.3,28.3z M36.8,35.7
			c1,0.7,1.7,1.5,2.1,2.3c0.2,0.5,0.3,0.9,0.3,1.3c0,2.9-2.9,5.3-6.6,5.5V33L36.8,35.7z"/>
		<path class="st8" d="M64,49.7c-0.3,0-0.5,0.2-0.5,0.5v2.6c-3.4,0.2-6.1,2.5-6.1,5.3c0,0.5,0.1,0.9,0.3,1.4c0.4,0.8,1.1,1.6,2,2.2
			l3.8,2.5v9.9c-2.5-0.2-4.6-1.6-5-3.6c-0.1-0.3-0.3-0.4-0.6-0.4c-0.3,0.1-0.4,0.3-0.4,0.6c0.5,2.4,3,4.2,6,4.4v2.6
			c0,0.3,0.2,0.5,0.5,0.5c0.3,0,0.5-0.2,0.5-0.5v-2.6c3.4-0.2,6.1-2.5,6.1-5.3c0-0.5-0.1-0.9-0.3-1.4c-0.4-0.8-1.1-1.6-2-2.2
			l-3.8-2.5v-9.9c2.5,0.2,4.6,1.6,5,3.6c0.1,0.3,0.3,0.4,0.6,0.4c0.3-0.1,0.4-0.3,0.4-0.6c-0.5-2.4-3-4.2-6-4.4v-2.6
			C64.5,49.9,64.2,49.7,64,49.7z M67.7,67c0.8,0.5,1.4,1.1,1.7,1.8c0.2,0.4,0.2,0.7,0.2,1c0,2.3-2.3,4.1-5.1,4.3v-9.3L67.7,67z
			 M60.2,60.9c-0.8-0.5-1.4-1.1-1.7-1.8c-0.2-0.4-0.2-0.7-0.2-1c0-2.3,2.3-4.1,5.1-4.3V63L60.2,60.9z"/>
	</g>
</g>
<g id="blue_x5F_svg_x5F_2px">
	<g>
		<path class="st9" d="M64,35.9c-1.4,0-2.8,0.1-4.2,0.3c0.2-1.4,0.3-2.8,0.3-4.2c0-4-0.8-7.9-2.5-11.6c-0.2-0.5-0.8-0.7-1.3-0.5
			s-0.7,0.8-0.5,1.3c1.5,3.4,2.3,7,2.3,10.7c0,1.9-0.2,3.7-0.6,5.5c-0.1,0.5-0.2,0.9-0.3,1.4c-0.1,0.2-0.1,0.4-0.2,0.7
			c-0.1,0.3-0.2,0.6-0.3,0.9c-0.2,0.5-0.3,0.9-0.5,1.4C56.1,42,56,42.1,56,42.2c-2.6,6.2-7.6,11.1-13.7,13.7
			C42.2,56,42,56,41.9,56.1c-0.4,0.2-0.9,0.3-1.4,0.5c-0.3,0.1-0.6,0.2-1,0.3c-0.2,0.1-0.4,0.1-0.6,0.2c-0.5,0.1-0.9,0.2-1.4,0.3
			c-1.8,0.4-3.6,0.6-5.4,0.6c-14.4,0-26-11.7-26-26S17.7,6,32,6c7.1,0,13.7,2.8,18.6,7.8h-5.1c-0.6,0-1,0.4-1,1s0.4,1,1,1h7.1
			c0.3,0.1,0.6,0,0.9-0.2c0.2-0.2,0.3-0.5,0.4-0.8c0,0,0,0,0-0.1V7.5c0-0.6-0.4-1-1-1s-1,0.4-1,1v4.8C46.7,7,39.6,4,32,4
			C16.6,4,4,16.6,4,32s12.6,28,28,28c1.4,0,2.9-0.1,4.2-0.3c-0.2,1.4-0.3,2.8-0.3,4.2c0,4,0.8,7.9,2.5,11.6c0.2,0.5,0.8,0.7,1.3,0.5
			s0.7-0.8,0.5-1.3c-1.5-3.4-2.3-7-2.3-10.7c0-1.6,0.1-3.1,0.4-4.6c0.1,0,0.2-0.1,0.3-0.1c0.4-0.1,0.8-0.2,1.2-0.3
			c0.3-0.1,0.7-0.2,1-0.3s0.6-0.2,0.9-0.3c0.3-0.1,0.7-0.3,1-0.4c0.1,0,0.2-0.1,0.3-0.1c6.6-2.8,11.8-8.1,14.6-14.6
			c0.1-0.1,0.1-0.2,0.1-0.3c0.1-0.3,0.3-0.7,0.4-1c0.1-0.3,0.2-0.6,0.3-0.9c0.1-0.3,0.2-0.7,0.3-1c0.1-0.4,0.2-0.8,0.3-1.2
			c0-0.1,0.1-0.2,0.1-0.3c1.5-0.3,3.1-0.4,4.6-0.4c14.4,0,26,11.7,26,26S78.3,90,64,90c-7.1,0-13.7-2.8-18.6-7.8h5.1
			c0.6,0,1-0.4,1-1s-0.4-1-1-1h-7.1c-0.3-0.1-0.6,0-0.9,0.2c-0.2,0.2-0.3,0.5-0.4,0.8c0,0,0,0,0,0.1v7.4c0,0.6,0.4,1,1,1s1-0.4,1-1
			v-4.8C49.3,89,56.4,92,64,92c15.5,0,28-12.6,28-28S79.4,35.9,64,35.9z"/>
		<path class="st9" d="M32,50.2c0.6,0,1-0.4,1-1v-2.9c4.3-0.4,7.6-3.4,7.6-7c0-0.6-0.1-1.3-0.4-1.9c-0.5-1.1-1.4-2.2-2.7-3l-4.6-3
			V19.7c2.8,0.3,5.1,2,5.5,4.2c0.1,0.5,0.6,0.9,1.2,0.8c0.5-0.1,0.9-0.6,0.8-1.2c-0.7-3.1-3.7-5.4-7.5-5.8v-2.9c0-0.6-0.4-1-1-1
			s-1,0.4-1,1v2.9c-4.3,0.4-7.6,3.4-7.6,7c0,0.6,0.1,1.3,0.4,1.9c0.5,1.1,1.4,2.2,2.7,3l4.6,3v11.8c-2.8-0.3-5.1-2-5.5-4.2
			c-0.1-0.5-0.6-0.9-1.2-0.8c-0.5,0.1-0.9,0.6-0.8,1.2c0.7,3.1,3.7,5.4,7.5,5.8v2.9C31,49.8,31.5,50.2,32,50.2z M27.6,27.9
			c-0.9-0.6-1.6-1.3-1.9-2.1c-0.2-0.4-0.3-0.8-0.3-1.1c0-2.5,2.5-4.6,5.6-5v10.5L27.6,27.9z M36.5,36.1c0.9,0.6,1.6,1.3,1.9,2.1
			c0.2,0.4,0.3,0.8,0.3,1.1c0,2.5-2.5,4.6-5.6,5V33.9L36.5,36.1z"/>
		<path class="st9" d="M64,49.2c-0.6,0-1,0.4-1,1v2.1c-3.5,0.4-6.1,2.8-6.1,5.8c0,0.5,0.1,1.1,0.4,1.6c0.4,0.9,1.2,1.8,2.2,2.5
			l3.6,2.3v9.1c-2-0.3-3.7-1.6-4-3.1c-0.1-0.5-0.6-0.9-1.2-0.8c-0.5,0.1-0.9,0.6-0.8,1.2c0.5,2.5,3,4.4,6,4.7v2.1c0,0.6,0.4,1,1,1
			c0.6,0,1-0.4,1-1v-2.1c3.5-0.4,6.1-2.8,6.1-5.8c0-0.5-0.1-1.1-0.4-1.6c-0.4-0.9-1.2-1.8-2.2-2.5L65,63.4v-9.1c2,0.3,3.7,1.6,4,3.1
			c0.1,0.5,0.6,0.9,1.2,0.8c0.5-0.1,0.9-0.6,0.8-1.2c-0.5-2.5-3-4.4-6-4.7v-2.1C65,49.7,64.5,49.2,64,49.2z M67.4,67.4
			c0.7,0.5,1.2,1,1.5,1.6c0.1,0.3,0.2,0.6,0.2,0.8c0,1.8-1.8,3.4-4.1,3.7v-7.8L67.4,67.4z M60.5,60.5c-0.7-0.5-1.2-1-1.5-1.6
			c-0.1-0.3-0.2-0.6-0.2-0.8c0-1.8,1.8-3.4,4.1-3.7v7.8L60.5,60.5z"/>
	</g>
</g>
</svg>
