<?xml version="1.0" encoding="utf-8"?>
<!-- Generator: Adobe Illustrator 16.0.0, SVG Export Plug-In . SVG Version: 6.00 Build 0)  -->
<!DOCTYPE svg PUBLIC "-//W3C//DTD SVG 1.1//EN" "http://www.w3.org/Graphics/SVG/1.1/DTD/svg11.dtd">
<svg version="1.1" id="Capa_1" xmlns="http://www.w3.org/2000/svg" xmlns:xlink="http://www.w3.org/1999/xlink" x="0px" y="0px"
	 width="200px" height="80px" viewBox="-119.167 -27.5 200 80" enable-background="new -119.167 -27.5 200 80" xml:space="preserve"
	>
<g>
	<g>
		<path fill="#EB4444" d="M-88.631,43.614c1.66,1.659,4.94,3.016,7.284,3.016h150.68c4.697,0.004,8.539-3.839,8.532-8.532V-13.1
			c0.004-4.688-3.839-8.527-8.532-8.527L-81.343-21.63c-2.342,0-5.626,1.358-7.282,3.016l-25.083,25.083
			c-3.318,3.316-3.32,8.747,0.002,12.067L-88.631,43.614z M-107.163,7.628c2.688-2.688,7.056-2.688,9.746,0.004
			c2.689,2.688,2.689,7.054,0,9.739c-2.692,2.695-7.056,2.691-9.744,0C-109.851,14.683-109.854,10.32-107.163,7.628z"/>
	</g>
	<g>
		<path fill="#FFFFFF" d="M-77.956,14.566h14.913v5.265h-14.913V14.566z"/>
		<path fill="#FFFFFF" d="M-55.762,27.104h8.896V0.912h-7.329v-4.511c3.945-0.756,6.706-1.757,9.209-3.265h5.392v33.968h7.827v5.888
			h-23.995V27.104z"/>
		<path fill="#FFFFFF" d="M-23.416,23.591c2.384,2.256,5.329,4.263,9.335,4.263c4.453,0,7.712-2.822,7.712-7.646
			c0-4.759-2.948-7.456-7.335-7.456c-2.568,0-4.012,0.688-6.389,2.255l-3.451-2.192l1.195-19.679h21.307v6.081h-15.042l-0.816,9.656
			c1.695-0.82,3.196-1.32,5.263-1.32c6.828,0,12.531,3.884,12.531,12.47c0,8.713-6.704,13.719-14.03,13.719
			c-6.456,0-10.652-2.567-13.6-5.511L-23.416,23.591z"/>
		<path fill="#FFFFFF" d="M5.807,4.168c0-8.208,4.008-12.909,9.775-12.909c5.765,0,9.776,4.7,9.776,12.909
			c0,8.271-4.012,13.03-9.776,13.03C9.815,17.198,5.807,12.44,5.807,4.168z M20.155,4.168c0-6.145-1.941-8.709-4.573-8.709
			c-2.634,0-4.57,2.564-4.57,8.709c0,6.139,1.936,8.83,4.57,8.83C18.214,12.999,20.155,10.307,20.155,4.168z M16.899,33.741
			L39.267-8.74h4.387L21.286,33.741H16.899z M35.194,20.711c0-8.208,4.012-12.912,9.774-12.912c5.77,0,9.775,4.704,9.775,12.912
			c0,8.271-4.006,13.03-9.775,13.03C39.206,33.741,35.194,28.982,35.194,20.711z M49.542,20.711c0-6.145-1.94-8.711-4.573-8.711
			c-2.632,0-4.575,2.567-4.575,8.711c0,6.136,1.943,8.84,4.575,8.84C47.602,29.551,49.542,26.847,49.542,20.711z"/>
	</g>
</g>
</svg>
