<?xml version="1.0" encoding="UTF-8"?>
<svg id="Capa_1" xmlns="http://www.w3.org/2000/svg" version="1.1" viewBox="0 0 200 80">
  <!-- Generator: Adobe Illustrator 29.1.0, SVG Export Plug-In . SVG Version: 2.1.0 Build 142)  -->
  <defs>
    <style>
      .st0 {
        fill: #fff;
      }

      .st1 {
        fill: #eb4444;
      }
    </style>
  </defs>
  <g>
    <path class="st1" d="M30.5,71.1c1.7,1.7,4.9,3,7.3,3h150.7c4.7,0,8.5-3.8,8.5-8.5V14.4c0-4.7-3.8-8.5-8.5-8.5H37.8c-2.3,0-5.6,1.4-7.3,3L5.5,34c-3.3,3.3-3.3,8.7,0,12.1l25.1,25.1ZM12,35.1c2.7-2.7,7.1-2.7,9.7,0,2.7,2.7,2.7,7.1,0,9.7-2.7,2.7-7.1,2.7-9.7,0-2.7-2.7-2.7-7.1,0-9.7Z"/>
    <g>
      <path class="st0" d="M41.2,42.1h14.9v5.3h-14.9v-5.3Z"/>
      <path class="st0" d="M63.4,54.6h8.9v-26.2h-7.3v-4.5c3.9-.8,6.7-1.8,9.2-3.3h5.4v34h7.8v5.9h-24v-5.9Z"/>
      <path class="st0" d="M125,31.7c0-8.2,4-12.9,9.8-12.9s9.8,4.7,9.8,12.9-4,13-9.8,13-9.8-4.8-9.8-13ZM139.3,31.7c0-6.1-1.9-8.7-4.6-8.7s-4.6,2.6-4.6,8.7,1.9,8.8,4.6,8.8c2.6,0,4.6-2.7,4.6-8.8ZM136.1,61.2l22.4-42.5h4.4l-22.4,42.5h-4.4ZM154.4,48.2c0-8.2,4-12.9,9.8-12.9s9.8,4.7,9.8,12.9-4,13-9.8,13-9.8-4.8-9.8-13ZM168.7,48.2c0-6.1-1.9-8.7-4.6-8.7s-4.6,2.6-4.6,8.7,1.9,8.8,4.6,8.8,4.6-2.7,4.6-8.8Z"/>
    </g>
  </g>
  <path class="st0" d="M87.4,40.2c0-13.7,5.8-20.7,14.6-20.7s14.6,7,14.6,20.7-5.8,21-14.6,21-14.6-7.3-14.6-21ZM107.3,40.2c0-10.9-2.4-13.1-5.3-13.1s-5.3,2.2-5.3,13.1,2.3,13.5,5.3,13.5,5.3-2.7,5.3-13.5Z"/>
</svg>