<svg id="blue_svg_2px" xmlns="http://www.w3.org/2000/svg" viewBox="0 0 96 96"><defs><style>.cls-1{fill:#00008f;}</style></defs><title>dental_blue</title><path class="cls-1" d="M66.54,10.15a62.54,62.54,0,0,0-9.85.9l-.56.08c-2.61.36-5.08.69-7.53.81a39.13,39.13,0,0,1-8.2-.79l-.57-.09-1.55-.23a44.74,44.74,0,0,0-6.78-.67c-6.78,0-12.18,2.7-14.82,7.43-2.74,5.06-2.9,12.13-.42,18a42.68,42.68,0,0,1,2.63,8.54c.81,3.24,1.31,6.66,1.79,10,.12.83.24,1.65.36,2.46l0,.18c1,7.49,2.07,15.23,5.31,22.51l.22.46c.86,2,1.67,3.82,4.38,5.32a5.85,5.85,0,0,0,3,.83,6,6,0,0,0,2-.36,7.31,7.31,0,0,0,4.19-4c1.16-2.89.67-6.61.3-9.41a14.54,14.54,0,0,1-.36-3.11V67.68C39.92,62,39.6,54.85,46.36,52.9a10.66,10.66,0,0,1,5.33,0c6.76,1.95,6.44,9.06,6.19,14.78v1.2c-.13,1-.25,2.14-.37,3.26-.35,2.71-.84,6.43.32,9.34a7.29,7.29,0,0,0,4.16,4A5.9,5.9,0,0,0,67,85a10.08,10.08,0,0,0,4.43-5.41l.13-.13.08-.18c3-7.08,4.2-14.44,5.31-22.62l.11-.74c.6-3.95,1.21-8,2-11.83a62.64,62.64,0,0,1,2.64-8.56c2.44-6.09,2.27-13-.44-18C78.72,12.85,73.32,10.15,66.54,10.15ZM79.94,34.82h0a64.71,64.71,0,0,0-2.73,8.85c-.85,3.88-1.47,8-2.07,12l-.11.76c-1.08,8-2.21,15.14-5.1,21.94l-.12.12-.08.17c-.92,2.09-1.58,3.44-3.69,4.66a3.93,3.93,0,0,1-3.39.29,5.29,5.29,0,0,1-3-2.87c-1-2.41-.52-5.83-.19-8.34.13-1.15.25-2.29.38-3.31v-1.3c.26-5.74.64-14.41-7.63-16.79a12.68,12.68,0,0,0-6.43,0C37.54,53.36,37.92,62,38.18,67.79v1.15a16.09,16.09,0,0,0,.39,3.45c.32,2.5.77,5.92-.19,8.31a5.31,5.31,0,0,1-3,2.9,3.94,3.94,0,0,1-3.4-.32c-2.15-1.18-2.74-2.53-3.55-4.38l-.24-.52c-3.11-7-4.14-14.57-5.14-21.92l0-.2q-.19-1.23-.36-2.47c-.49-3.35-1-6.82-1.82-10.11a44.37,44.37,0,0,0-2.75-8.89c-2.25-5.33-2.12-11.72.34-16.26,2.27-4.06,7-6.39,13.06-6.39A43.12,43.12,0,0,1,38,12.8l1.55.23.55.09a40.77,40.77,0,0,0,8.62.82c2.55-.12,5.06-.46,7.71-.83L57,13a60.86,60.86,0,0,1,9.56-.88c6,0,10.79,2.33,13.06,6.38C82,23,82.12,29.35,79.94,34.82Z"/><path class="cls-1" d="M58.45,26.66H54v-4.4a1.68,1.68,0,0,0-1.67-1.67H45.63A1.68,1.68,0,0,0,44,22.26v4.4h-4.4a1.68,1.68,0,0,0-1.67,1.67v6.75a1.68,1.68,0,0,0,1.67,1.67H44v4.4a1.68,1.68,0,0,0,1.67,1.67h6.75A1.68,1.68,0,0,0,54,41.16v-4.4h4.4a1.68,1.68,0,0,0,1.67-1.67V28.34A1.68,1.68,0,0,0,58.45,26.66Zm-.33,8.1H53a1,1,0,0,0-1,1v5.07H46V35.76a1,1,0,0,0-1-1H39.88v-6.1H45a1,1,0,0,0,1-1V22.59H52v5.07a1,1,0,0,0,1,1h5.07Z"/></svg>