<svg id="blue_svg_2px" xmlns="http://www.w3.org/2000/svg" viewBox="0 0 96 96"><defs><style>.cls-1{fill:#00008f;}</style></defs><title>eye_blue</title><path class="cls-1" d="M57.35,32.34a43.09,43.09,0,0,0-5.13-.71c-2.07-.2-4.13-.3-6.18-.3a57.57,57.57,0,0,0-6.51.37,31.13,31.13,0,0,0-7,1.36c-8.54,2.4-15.93,7.5-22.27,16.53a1.16,1.16,0,0,0,0,1.34c8.41,12,20.26,19.44,33.05,20.93q.67.09,1.35.13c1.13.09,2.26.16,3.4.16,14.58,0,28.36-7.74,37.8-21.23a1.2,1.2,0,0,0-.08-1.41C78.71,39.52,68.23,34.34,57.35,32.34Zm3.77,3.55a20,20,0,0,1,0,28.29A21.68,21.68,0,0,1,46.23,70c-.59,0-1.17,0-1.76-.09l-.67-.07a21.38,21.38,0,0,1-12.46-5.71,20,20,0,0,1,0-28.29,5.09,5.09,0,0,1,1.88-1,43.06,43.06,0,0,1,6.36-1.2c1.9-.19,4-.3,6.17-.3h.49a63.42,63.42,0,0,1,7.34.38c.92.11,1.86.25,2.82.42C58.73,34.64,60.45,35.22,61.12,35.89ZM12.19,50.26C16.7,44,21.82,39.56,27.92,36.82a21.93,21.93,0,0,0,2,28.77l.39.36A49,49,0,0,1,12.19,50.26ZM58.44,68.72a20.31,20.31,0,0,0,4.09-3.12A22,22,0,0,0,64,36.1,39.07,39.07,0,0,1,83.82,50.26C77.1,59.64,68.2,66,58.44,68.72Z"/><path class="cls-1" d="M17.34,34.86a1,1,0,0,0,.66-.24c7.57-6.57,16.5-9.76,27.28-9.76a51.86,51.86,0,0,1,27.89,7.9,1,1,0,1,0,1.09-1.68,53.88,53.88,0,0,0-29-8.22c-11.28,0-20.63,3.35-28.59,10.25a1,1,0,0,0,.66,1.76Z"/><path class="cls-1" d="M51.14,43.53a3.43,3.43,0,0,1,.57-1.78,1.08,1.08,0,0,0-.51-1.55,10.31,10.31,0,1,0,6.08,7.46,1.08,1.08,0,0,0-1.06-.87,1.07,1.07,0,0,0-.35.06,3.73,3.73,0,0,1-1.17.24A3.57,3.57,0,0,1,51.14,43.53Zm4.34,6.12a8.24,8.24,0,1,1-6-7.93,4.9,4.9,0,0,0-.36,1.81,5.57,5.57,0,0,0,5.56,5.56,4.41,4.41,0,0,0,.75-.07Q55.48,49.35,55.48,49.66Z"/></svg>