<svg id="blue_svg_2px" xmlns="http://www.w3.org/2000/svg" viewBox="0 0 96 96"><defs><style>.cls-1{fill:#00008f;}</style></defs><title>hand_cross</title><path class="cls-1" d="M42.29,44.29H53.71a2.14,2.14,0,0,0,2.14-2.14V34H64a2.15,2.15,0,0,0,2.14-2.14V20.43A2.15,2.15,0,0,0,64,18.29H55.86V10.14A2.15,2.15,0,0,0,53.71,8H42.29a2.15,2.15,0,0,0-2.14,2.14v8.14H32a2.15,2.15,0,0,0-2.14,2.14V31.86A2.15,2.15,0,0,0,32,34h8.14v8.14A2.14,2.14,0,0,0,42.29,44.29ZM32,32a.14.14,0,0,1-.14-.14V20.43a.14.14,0,0,1,.14-.14h9.14a1,1,0,0,0,1-1V10.14a.14.14,0,0,1,.14-.14H53.71a.14.14,0,0,1,.14.14v9.14a1,1,0,0,0,1,1H64a.14.14,0,0,1,.14.14V31.86A.14.14,0,0,1,64,32H54.86a1,1,0,0,0-1,1v9.14a.14.14,0,0,1-.14.14H42.29a.14.14,0,0,1-.14-.14V33a1,1,0,0,0-1-1Z"/><path class="cls-1" d="M84.52,51.47a5.55,5.55,0,0,0-4.13,1.14L69.66,61l-9.81,1.94a5.55,5.55,0,0,0-4.43-8.16L40.75,52.87A18.41,18.41,0,0,0,25.9,57.6l-8.72,8-.48-.57h0a3.3,3.3,0,0,0-4.63-.36L8.15,68a3.27,3.27,0,0,0-.37,4.62L21.57,88.85a3.3,3.3,0,0,0,4.63.36l3.9-3.32a3.26,3.26,0,0,0,.39-4.59l3.74-3.18a4.56,4.56,0,0,1,3-1.05c.85.07,11.26,2,17.64,3.28A8.69,8.69,0,0,0,61,79.23L74.52,71l.16-.13L87.87,58.42a3.59,3.59,0,0,0,.37-4.83A5.55,5.55,0,0,0,84.52,51.47Zm-55.7,32.9-3.9,3.32a1.3,1.3,0,0,1-1.82-.14L9.31,71.33a1.27,1.27,0,0,1,.14-1.8l3.9-3.32a1.3,1.3,0,0,1,1.82.14L29,82.58a1.27,1.27,0,0,1-.14,1.8ZM86.5,57,73.38,69.34,60,77.53a6.68,6.68,0,0,1-4.74.87c-5.11-1-17-3.28-18-3.32h0a6.66,6.66,0,0,0-4.31,1.52l-3.74,3.18L18.48,67.15l8.78-8.08a16.42,16.42,0,0,1,13.24-4.21l14.73,1.88a3.55,3.55,0,0,1,.9,6.9l-.37,0a8.88,8.88,0,0,1-2.27,0L42.83,62.17a1,1,0,0,0-.28,2l10.65,1.49a10.85,10.85,0,0,0,2.78,0l.47-.05h.08l13.76-2.72a1,1,0,0,0,.42-.19l10.91-8.5a3.6,3.6,0,0,1,5,.63A1.59,1.59,0,0,1,86.5,57Z"/></svg>