<svg id="blue_svg_2px" xmlns="http://www.w3.org/2000/svg" viewBox="0 0 96 96"><defs><style>.cls-1{fill:#00008f;}</style></defs><title>health_kit</title><path class="cls-1" d="M33.38,54.71h7.53v7.54a2.22,2.22,0,0,0,2.22,2.22h9.75a2.22,2.22,0,0,0,2.22-2.22V54.71h7.53a2.22,2.22,0,0,0,2.22-2.22V42.73a2.22,2.22,0,0,0-2.22-2.22H55.09V33a2.22,2.22,0,0,0-2.22-2.22H43.13A2.22,2.22,0,0,0,40.91,33v7.54H33.38a2.22,2.22,0,0,0-2.22,2.22v9.76A2.22,2.22,0,0,0,33.38,54.71Zm-.22-12a.22.22,0,0,1,.22-.22h8.53a1,1,0,0,0,1-1V33a.22.22,0,0,1,.22-.22h9.75a.22.22,0,0,1,.22.22v8.54a1,1,0,0,0,1,1h8.53a.22.22,0,0,1,.22.22v9.76a.22.22,0,0,1-.22.22H54.09a1,1,0,0,0-1,1v8.54a.22.22,0,0,1-.22.22H43.13a.22.22,0,0,1-.22-.22V53.71a1,1,0,0,0-1-1H33.38a.22.22,0,0,1-.22-.22Z"/><path class="cls-1" d="M14,77.9h3.75V83a1,1,0,0,0,1,1H30.94a1,1,0,0,0,1-1V77.9H64.06V83a1,1,0,0,0,1,1H77.25a1,1,0,0,0,1-1V77.9H82a6,6,0,0,0,6-6V23.32a6,6,0,0,0-6-6H64.3L61,13.41C58.84,10.89,57.41,10,53.62,10H42.38c-3.79,0-5.22.89-7.33,3.4L31.7,17.32H14a6,6,0,0,0-6,6V71.9A6,6,0,0,0,14,77.9ZM29.94,82H19.75V77.9H29.94Zm46.31,0H66.06V77.9H76.25ZM66.06,19.32H76.25V22a2.66,2.66,0,0,1-2.66,2.66H68.72A2.66,2.66,0,0,1,66.06,22ZM36.58,14.69c1.78-2.12,2.71-2.69,5.8-2.69H53.62c3.09,0,4,.57,5.81,2.7l2.24,2.62H34.33ZM19.75,19.32H29.94V22a2.66,2.66,0,0,1-2.66,2.66H22.41A2.66,2.66,0,0,1,19.75,22Zm-9.75,4a4,4,0,0,1,4-4h3.75V22a4.66,4.66,0,0,0,4.66,4.66h4.88A4.66,4.66,0,0,0,31.94,22V19.32H64.06V22a4.66,4.66,0,0,0,4.66,4.66h4.88A4.66,4.66,0,0,0,78.25,22V19.32H82a4,4,0,0,1,4,4V71.9a4,4,0,0,1-4,4H14a4,4,0,0,1-4-4Z"/></svg>