<svg id="blue_svg_2px" xmlns="http://www.w3.org/2000/svg" viewBox="0 0 96 96"><defs><style>.cls-1{fill:#00008f;}</style></defs><title>hospital_bed</title><path class="cls-1" d="M78,48.39H62.33V12h7.89a2.36,2.36,0,0,1,2.33,2.39V19H69.11a1,1,0,0,0-1,1V30.71a5,5,0,0,0,5,5H74a5,5,0,0,0,5-5V20a1,1,0,0,0-1-1H74.56V14.39A4.37,4.37,0,0,0,70.22,10H52.44a4.37,4.37,0,0,0-4.33,4.39V19H44.67a1,1,0,0,0-1,1V30.71a5,5,0,0,0,5,5h.89a5,5,0,0,0,5-5V20a1,1,0,0,0-1-1H50.11V14.39A2.36,2.36,0,0,1,52.44,12h7.89V48.39H35.58c-.82-6.21-9.2-11-19.92-11.26V29.81a4,4,0,0,0-4-4H11a4,4,0,0,0-4,4V79a3,3,0,0,0,3,3h2.67a3,3,0,0,0,3-3V68.45H60.33V80h-9a1,1,0,1,0,0,2h20a1,1,0,0,0,0-2h-9V68.45h18V79a3,3,0,0,0,3,3H86a3,3,0,0,0,3-3V59.39A11,11,0,0,0,78,48.39ZM77,30.71a3,3,0,0,1-3,3h-.89a3,3,0,0,1-3-3V21H77Zm-24.44,0a3,3,0,0,1-3,3h-.89a3,3,0,0,1-3-3V21h6.89Zm-19,17.68H15.67V39.13C24.9,39.4,32.64,43.44,33.57,48.39ZM13.67,79a1,1,0,0,1-1,1H10a1,1,0,0,1-1-1V29.81a2,2,0,0,1,2-2h.67a2,2,0,0,1,2,2V79Zm2-17.32H87v4.77H15.67ZM87,79a1,1,0,0,1-1,1H83.33a1,1,0,0,1-1-1V68.45H87Zm0-19.32H15.67V50.39H78a9,9,0,0,1,9,9Z"/></svg>