<?xml version="1.0" encoding="utf-8"?>
<!-- Generator: Adobe Illustrator 16.0.0, SVG Export Plug-In . SVG Version: 6.00 Build 0)  -->
<!DOCTYPE svg PUBLIC "-//W3C//DTD SVG 1.1//EN" "http://www.w3.org/Graphics/SVG/1.1/DTD/svg11.dtd">
<svg version="1.1" id="Capa_1" xmlns="http://www.w3.org/2000/svg" xmlns:xlink="http://www.w3.org/1999/xlink" x="0px" y="0px"
	 width="571.637px" height="571.637px" viewBox="0 0 571.637 571.637" enable-background="new 0 0 571.637 571.637"
	 xml:space="preserve">
<g>
	<g id="Layer_2_29_">
		<path fill="#00008F" d="M429.011,461.912c-1.926,0-3.773-0.494-5.341-1.427l-39.73-23.747c-0.787-0.471-2.529-0.97-4.21-0.97
			c-0.529,0-0.861,0.053-1.012,0.085l-82.777,17.291c-0.824,0.173-1.727,0.262-2.674,0.262c-3.322,0-6.884-1.052-9.297-2.745
			l-85.437-59.855c-2.913-2.033-5.875-6.233-6.883-9.766l-16.052-56.414c-0.598-2.092-2.155-5.823-3.266-7.492L84.431,184.398
			c-1.085-1.626-2.805-3.219-3.601-3.552h-7.564l61.472,151.052c1.906,4.619-0.111,10.012-4.601,12.257l-10.29,5.145
			c-1.305,0.653-2.778,0.999-4.257,0.999c-3.407,0-6.598-1.785-8.328-4.658l-51.05-85.091c-0.865-1.44-2.755-3.313-4.274-4.817
			l-0.714-0.709L20.627,225.29c-1.12-1.113-3.37-3.351-2.089-6.455c0.574-1.392,1.953-3.05,5.262-3.05l0.62,0.005
			c0.236,0.003,0.499,0.007,0.79,0.007H42.74c0.044-0.182,0.065-0.368,0.046-0.486l-25.471-95.164
			c-0.705-2.594-0.223-5.253,1.326-7.279c1.527-1.997,3.921-3.142,6.568-3.142h46.537c3.377,0,8.138,1.084,11.164,3.508
			l39.238,30.988c0.063,0.049,1.129,0.861,5.427,0.861h25.422v-7.231c0-5.666,7.252-10.447,11.808-10.447h37.222
			c3.43,0,8.39,1.591,11.173,5.083l31.3,38.83c0.439,0.189,1.508,0.284,3.181,0.284l28.799-0.001c5.222,0,9.852,5.593,11.148,7.307
			l50.295,68.801c2.174,2.896,3.512,7.749,3.149,11.491c-1.829,18.864-5.627,82.798,22.267,113.526
			c9.829,10.828,22.877,16.318,38.78,16.318c55.925,0,67.135-26.768,69.357-38.276c0.47-2.427,1.802-7.341,3.818-10.372
			l13.434-20.563c1.83-2.754,6.274-6.806,11.1-6.806h46.527c2.468,0,4.778,1.146,6.341,3.146c1.734,2.22,2.359,5.192,1.672,7.951
			l-7.037,29.025c-0.841,3.347-3.263,7.638-5.643,10.02l-58.558,58.628c-0.407,0.406-0.611,1.734-0.35,2.258l5.166,10.609
			c1.29,2.578,1.22,5.526-0.211,7.842c-1.359,2.201-3.796,3.515-6.517,3.515h-27.922c-1.852,0-4.044,0.749-4.696,1.394
			l-12.056,11.508C434.625,460.822,431.883,461.912,429.011,461.912z M379.73,426.524c3.172,0,6.604,0.874,8.955,2.281
			l39.722,23.741c0.09,0.054,0.309,0.122,0.604,0.122c0.521,0,0.908-0.194,1.029-0.316l0.087-0.085l12.03-11.481
			c2.779-2.751,7.61-4.01,11.139-4.01h25.398l-4.202-8.629c-2.009-4.01-1.097-9.689,2.099-12.885l58.557-58.628
			c1.219-1.22,2.777-3.989,3.207-5.7l6.949-28.664h-45.478c-0.634,0.079-2.52,1.352-3.382,2.648l-13.434,20.563
			c-0.849,1.277-1.966,4.486-2.46,7.04c-1.191,6.164-4.969,18.012-16.879,28.072c-13.899,11.739-34.609,17.692-61.555,17.692
			c-18.62,0-33.97-6.51-45.625-19.349c-30.445-33.54-26.543-100.812-24.622-120.63c0.138-1.431-0.558-4.005-1.378-5.099
			l-50.286-68.788c-1.378-1.823-3.194-3.299-3.922-3.577l-28.605,0.001c-2.588,0-7.405,0-10.295-3.625l-31.398-38.952
			c-0.59-0.741-2.522-1.62-3.959-1.62h-37.127c-0.724,0.145-2.131,1.088-2.659,1.75v8.76c0,0.329,0.009,0.608,0.016,0.845
			c0.036,1.146,0.095,3.063-1.469,4.676c-1.596,1.646-3.56,1.646-5.137,1.646h-28.076c-5.104,0-8.759-0.938-11.174-2.866
			l-39.245-30.992c-0.974-0.78-3.591-1.499-5.41-1.499H26.568l25.15,93.97c0.795,2.94,0.077,6.462-1.834,8.959
			c-1.551,2.026-3.703,3.142-6.06,3.142h-10.19l24.808,24.123c1.886,1.868,4.233,4.193,5.696,6.628l51.047,85.086
			c0.049,0.082,0.226,0.176,0.405,0.176c0.029,0,0.083-0.003,0.122-0.022l10.291-5.145c0.133-0.065,0.238-0.348,0.181-0.485
			l-61.601-151.38c-1.168-2.831-0.8-6.361,0.948-8.974c1.465-2.189,3.73-3.445,6.215-3.445h9.307c5.661,0,10.218,6.396,11.074,7.677
			l87.905,132.742c1.728,2.598,3.623,7.162,4.454,10.07l16.052,56.415c0.429,1.499,2.09,3.886,3.292,4.725l85.445,59.861
			c0.751,0.526,2.447,1.069,3.991,1.069c0.405,0,0.66-0.04,0.777-0.064l82.775-17.291
			C377.707,426.62,378.687,426.524,379.73,426.524z M155.504,145.298l0.146,4.407v-4.463
			C155.602,145.259,155.553,145.278,155.504,145.298z"/>
	</g>
</g>
</svg>
