<?xml version="1.0" encoding="UTF-8"?>
<svg id="blue_svg_2px" xmlns="http://www.w3.org/2000/svg" version="1.1" viewBox="0 0 96 96">
  <!-- Generator: Adobe Illustrator 29.1.0, SVG Export Plug-In . SVG Version: 2.1.0 Build 142)  -->
  <defs>
    <style>
      .st0 {
        fill: #fff;
      }
    </style>
  </defs>
  <path class="st0" d="M41.4,94.5c-3.7-1.5-4.9-3.4-4.9-7.5s0-4.4,0-6.7c.2-4.7-1.8-8.4-5.3-11.4-3-2.5-5.5-5.3-7.3-8.8-6.6-12.7-1.9-28.4,10.5-35.7,16.9-9.9,38,.2,40.8,19.5,1.4,9.8-1.7,18.2-9.5,24.6-3.9,3.2-6,7.3-5.8,12.4,0,2.4,0,4.9,0,7.3s-1.6,5.3-4.7,6.2c0,0-.2,0-.2,0h-13.6ZM55.9,78.9c1-5,1.6-6.5,3.2-9,1.3-2,3.2-3.6,5-5.2,9.6-8.6,10-23.6,1-33.1-8.4-8.9-22.5-9.7-31.7-1.7-6.6,5.7-9.7,12.9-8.3,21.7.9,5.7,3.6,10.5,8.2,14.1,2.9,2.3,5.1,5,6.2,8.6.5,1.5.7,3,1,4.6h15.4ZM56,82.9h-15.5c0,2,0,4,0,6,0,1.3.8,1.8,2.1,1.8h11.1c1.4,0,2.1-.5,2.2-1.7.1-2.1.1-4.1.1-6.1Z"/>
  <path class="st0" d="M1.3,47.2c.4-1.1,1.3-1.4,2.4-1.4h7.1c1.3,0,2.1.6,2.2,1.7.1,1.1-.6,2.1-1.7,2.1-2.7,0-5.5,0-8.2,0s-1.4-.6-1.8-1.4c0-.3,0-.6,0-1Z"/>
  <path class="st0" d="M95,48.3c-.4,1.1-1.3,1.4-2.4,1.4h-7c-.8,0-1.5,0-2-.9-.8-1.3,0-2.9,1.4-3,2.7,0,5.5,0,8.2,0s1.4.6,1.8,1.4v1.1Z"/>
  <path class="st0" d="M50.2,6.9v3.7c0,1.4-.7,2.2-1.9,2.2s-2-.8-2-2.1V3.3c0-1.5.7-2.3,1.9-2.3s1.9.7,2,2.1v3.8Z"/>
  <path class="st0" d="M23.8,21.2c0,1.1-.7,2.2-1.5,2.3-.6.1-1.5,0-1.9-.4-1.9-1.9-3.7-3.9-5.5-5.8-.6-.7-.6-1.6-.1-2.3s1.4-1.1,2.2-.8c.4.1.7.4,1,.6,1.7,1.7,3.5,3.4,5.2,5.2.2.4.4.9.6,1.2Z"/>
  <path class="st0" d="M79.6,81.5c-.6-.3-1.3-.6-1.8-1-1.6-1.5-3.2-3.2-4.8-4.8s-1.1-2.1-.2-3,1.9-.8,3,.2c1.7,1.7,3.4,3.3,5,5,.4.4.7,1,.8,1.6,0,1.1-.7,1.8-2,2Z"/>
  <path class="st0" d="M16.4,81.4c-.9,0-1.5-.3-1.9-1.1-.3-.8-.2-1.5.5-2.2,1.8-1.8,3.6-3.6,5.4-5.3.9-.9,2-.9,2.8,0s.8,1.9,0,2.8c-1.7,1.8-3.5,3.5-5.3,5.3-.4.3-1,.4-1.5.6Z"/>
  <path class="st0" d="M81.6,16.7c0,.2-.3.8-.7,1.1-1.7,1.7-3.4,3.4-5.1,5.1-.7.7-1.6.8-2.5.5-1.1-.4-1.4-1.9-.5-2.8,1.9-1.9,3.8-3.8,5.7-5.7.6-.6,1.3-.6,2-.3.7.4,1,1,1.1,2.1Z"/>
  <path class="st0" d="M48.8,30.2c9.2.2,17,8.1,16.9,17.3,0,1.8-1.6,2.7-3,1.9-.8-.4-.9-1.2-.9-2-.4-5.8-3.2-9.9-8.4-12.2-1.5-.7-3.2-.9-4.8-1.1-1.7-.2-2.5-.8-2.4-2.1.1-1.2.9-1.8,2.6-1.8Z"/>
</svg>