<svg id="blue_svg_2px" xmlns="http://www.w3.org/2000/svg" viewBox="0 0 96 96"><defs><style>.cls-1{fill:#00008f;}</style></defs><title>motor_disability_blue</title><path class="cls-1" d="M59.41,31.26a4.25,4.25,0,0,0-4.17-3.46H52.13a7.42,7.42,0,1,0-8.3,0H40.72a4.25,4.25,0,0,0-4.17,3.45c-.26.9-4,13.87-4.86,16.91a3.87,3.87,0,0,0,1.14,4.39V82a1,1,0,0,0,2,0V53.46a4.7,4.7,0,0,0,3.06-.34l-1.17,5.65a4.26,4.26,0,0,0,3.35,5.69V78.74A4.26,4.26,0,0,0,48,80.94a4.26,4.26,0,0,0,7.9-2.19V64.46a4.26,4.26,0,0,0,3.35-5.69l-1.17-5.66a4.24,4.24,0,0,0,2,.51,4.56,4.56,0,0,0,3.59-1.75,4.14,4.14,0,0,0,.59-3.72ZM42.56,21.65A5.42,5.42,0,1,1,48,27.07,5.43,5.43,0,0,1,42.56,21.65Zm19.52,29a2.6,2.6,0,0,1-2,1,2.29,2.29,0,0,1-2.23-1.93L55.76,42a1,1,0,0,0-1.94.46l3.47,16.83a1,1,0,0,0,.05.17,2.26,2.26,0,0,1-2.1,3.09h-.36a1,1,0,0,0-1,1V78.74a2.26,2.26,0,0,1-4.52,0V63.51a1,1,0,0,0-1-1h-.78a1,1,0,0,0-1,1V78.74a2.26,2.26,0,0,1-4.52,0V63.51a1,1,0,0,0-1-1h-.35a2.26,2.26,0,0,1-2.1-3.09,1,1,0,0,0,0-.17l3.47-16.84A1,1,0,0,0,40.2,42l-2.1,7.8A2.31,2.31,0,0,1,37,51.32a2.73,2.73,0,0,1-1.91.15h0l-.1,0c-1-.34-1.92-.8-1.39-2.74.85-3.11,4.82-16.79,4.86-16.93l0-.1a2.25,2.25,0,0,1,2.22-1.86H55.24a2.25,2.25,0,0,1,2.21,1.86l0,.1L62.34,48.7A2.14,2.14,0,0,1,62.07,50.66Z"/></svg>