<svg id="blue_svg_2px" xmlns="http://www.w3.org/2000/svg" viewBox="0 0 96 96"><defs><style>.cls-1{fill:#00008f;}</style></defs><title>optical_blue</title><path class="cls-1" d="M89.05,38H84.43a17.77,17.77,0,0,0-29.52.16H41.09A17.77,17.77,0,0,0,11.57,38H6.95a1,1,0,1,0,0,2H10.4a17.79,17.79,0,1,0,33.67,8,17.66,17.66,0,0,0-1.85-7.84H53.78A17.79,17.79,0,1,0,85.6,40h3.45a1,1,0,0,0,0-2ZM26.27,63.79A15.79,15.79,0,1,1,42.07,48,15.81,15.81,0,0,1,26.27,63.79Zm43.45,0A15.79,15.79,0,1,1,85.52,48,15.81,15.81,0,0,1,69.73,63.79Z"/></svg>