<svg id="blue_svg_2px" xmlns="http://www.w3.org/2000/svg" viewBox="0 0 96 96"><defs><style>.cls-1{fill:#00008f;}</style></defs><title>plaster_crutch</title><path class="cls-1" d="M68.85,52,58.37,50V43.91A14.92,14.92,0,0,0,61,38.24c1.26-.55,8.26-4.05,8.26-14.31v-3c0-4.17,0-11.09-6.69-11.45C59.6,4.85,56,2,48,2H46.44C34.63,2,26.7,11.79,26.7,20.94v3c0,10.25,7,13.76,8.26,14.31a14.92,14.92,0,0,0,2.67,5.68V50L27.2,52C19.24,53,13,59.6,13,66.89v8.44C13,83.61,19,92,30.37,92H54.93a9.29,9.29,0,0,0,7.44-3.67c13.5-1.51,20.64-6,20.64-13V66.89C83,59.6,76.76,53,68.85,52Zm-25,5.37-4.26-6.8V46A12.87,12.87,0,0,0,48,48.84,12.87,12.87,0,0,0,56.37,46v4.35h0ZM28.7,23.93v-3C28.7,12.76,35.83,4,46.44,4H48c7.37,0,10.43,2.57,13.21,7a1,1,0,0,0,.85.47c4.86,0,5.25,4.1,5.25,9.46v3c0,7.14-3.79,10.51-5.86,11.83q.06-.68.06-1.36v-12a1,1,0,0,0-1-1,7.37,7.37,0,0,1-6.9-3.9,1,1,0,0,0-.89-.59,1,1,0,0,0-.91.55c-1.86,3.65-4,6.93-10,6.93H35.51a1,1,0,0,0-1,1v9q0,.68.06,1.36C32.49,34.44,28.7,31.07,28.7,23.93Zm7.81,2.49h5.25c6.19,0,9.05-3.12,11-6.47a9.62,9.62,0,0,0,6.75,3.44v11c0,6-3.6,12.45-11.49,12.45S36.51,40.39,36.51,34.39Zm-9,27.52,10.62-2,4,6.39-14.56,8.2v-2a1,1,0,0,0-2,0v3.17L15,73.62V66.89C15,60.58,20.48,54.9,27.52,53.94ZM15,75.9l29-16.35h0l13.21-7.44a1,1,0,0,0,.24-.21L64,53.1,39.9,90H30.37C20.09,90,15.28,82.8,15,75.9ZM54.93,90H42.29l8.93-13.67h3.71a6.84,6.84,0,1,1,0,13.67ZM81,75.33c0,5.08-5.07,7.9-10.59,9.46V77.74a1,1,0,0,0-2,0V85.3c-1.67.38-3.33.66-4.86.87a8.48,8.48,0,0,0,.56-3,9,9,0,0,0-9.19-8.84h-2.4L66.12,53.5l2.4.45c7,1,12.47,6.64,12.47,12.94Z"/></svg>