<svg id="blue_svg_2px" xmlns="http://www.w3.org/2000/svg" viewBox="0 0 96 96"><path d="M62.3,66.44a6.61,6.61,0,0,1-1.39-2.09,6,6,0,0,0,1-2.27c.19-.92.45-2,.75-3.24,1.08-4.46,2.55-10.58,2.55-16.6a27.76,27.76,0,0,0-4-13.59c2.29-1.21,3.73-6.39,3.73-9.65,0-5.8-4.07-15-15-15C42.63,4,38,8.32,37.66,12.51c-1,.79-3,3.05-3,8.29,0,3.83,1.38,7.24,2.48,10a14.59,14.59,0,0,1,1.36,4.47c0,.73-.69,3.19-2,3.86a1,1,0,0,0-.26,1.59,7.82,7.82,0,0,0,4.82,2,22.88,22.88,0,0,1-2.67,1.08,1,1,0,0,0-.62.62,8.37,8.37,0,0,0,.19,6.81,8,8,0,0,0,1.76,2.26l-.62,0c-4.57-.19-8,1.83-9.38,5.5-.91,2.39-.75,5.19.27,6.49a15.05,15.05,0,0,0-1.86,7.27C28.09,84.42,36.26,92,48.91,92a1,1,0,0,0,0-2C37.3,90,30.09,83.36,30.09,72.68c0-5.09,2.7-8.73,6.75-12.63.76-.73,1.51-.53,4.13.6l.93.4c3,1.12,5.39,2.09,7.3,2.87a31.78,31.78,0,0,0,6.74,2.3,5.42,5.42,0,0,0,3.39-.46,12,12,0,0,0,1.43,2c1.94,2.33,4.88,5.85,5.15,15.31a1,1,0,0,0,1,1h0a1,1,0,0,0,1-1C67.62,72.82,64.42,69,62.3,66.44ZM49.91,6c9.54,0,13,7.77,13,13,0,4-2,7.86-2.72,7.92a.68.68,0,0,1-.22-.19c-2.35-2.86-3.95-4.11-9-7.06a34,34,0,0,0-5.48-2.39c-3.65-1.34-5.88-2.26-5.88-4.23C39.62,9.65,43.76,6,49.91,6Zm1.92,18.34c-1.17,2-3.39,3.93-4.85,4.24a1,1,0,0,1-.74,0,17.73,17.73,0,0,1-6.49-11.7,22.21,22.21,0,0,0,5.06,2.33A31.3,31.3,0,0,1,50,21.4c.92.54,1.72,1,2.42,1.45A3.51,3.51,0,0,1,51.83,24.34ZM45.62,39.9c-1.38,1-4.92,1.2-7.06.08a8.14,8.14,0,0,0,1.91-4.73A15.39,15.39,0,0,0,39,30c-1.1-2.72-2.34-5.79-2.34-9.23a11.21,11.21,0,0,1,1-5.08c.26,4.22,2.26,10.54,7.43,14.42a2.69,2.69,0,0,0,1.58.48,3.51,3.51,0,0,0,.76-.08A8.4,8.4,0,0,0,51,28.42a3.17,3.17,0,0,1,1.15,2.82c0,1.6-2.16,5.37-6.37,8.59A.46.46,0,0,0,45.62,39.9ZM56.29,64.26A31.73,31.73,0,0,1,50,62.07c-1.93-.79-4.33-1.77-7.32-2.88l-.88-.37c-2.51-1.09-4.5-2-6.31-.21A35.17,35.17,0,0,0,31.2,63.4a6.78,6.78,0,0,1,.35-3.77C32.18,58,34,55.22,39,55.42c6.86.27,10.67.93,14.56,2.51a1,1,0,0,0,1-.15,1,1,0,0,0,.36-.94,49.59,49.59,0,0,1,0-15.71,1,1,0,0,0-2-.26,51.81,51.81,0,0,0-.24,14.6,35.79,35.79,0,0,0-8.59-1.72h0a8,8,0,0,1-4.38-3.46,6.3,6.3,0,0,1-.22-4.79c9.64-3.43,14.68-11.05,14.68-14.25A5.17,5.17,0,0,0,52.39,27a12.33,12.33,0,0,0,1.16-1.63A6,6,0,0,0,54.17,24,19.31,19.31,0,0,1,58.39,28a26.6,26.6,0,0,1,4.78,14.29c0,5.79-1.44,11.76-2.5,16.13-.3,1.25-.57,2.36-.76,3.31a3.78,3.78,0,0,1-.83,1.79h0a2.27,2.27,0,0,1-.47.41A3.39,3.39,0,0,1,56.29,64.26Z" fill="#00008f"/></svg>