<svg id="blue_svg_2px" xmlns="http://www.w3.org/2000/svg" viewBox="0 0 96 96"><defs><style>.cls-1{fill:#00008f;}</style></defs><title>psychological_disability_blue</title><path class="cls-1" d="M56.48,71.91a4.25,4.25,0,0,1-1.14-2.47l-.49-4.73a1,1,0,0,0-1.37-.83l-7.34,2.94a1.56,1.56,0,0,1-1.21,0l-7.25-3.2a1,1,0,0,0-1.4.92v5.26a2.41,2.41,0,0,1-.59,1.57L30,77.93A1.25,1.25,0,0,0,30.94,80H61.43a1.17,1.17,0,0,0,.85-2ZM32.58,78l4.62-5.34a4.41,4.41,0,0,0,1.07-2.88V66.05l5.84,2.58h0a3.58,3.58,0,0,0,2.76,0L53,66.24l.35,3.41A6.26,6.26,0,0,0,55,73.29L59.5,78Z"/><path class="cls-1" d="M46.15,63.47C51.91,63.47,57.21,59,60,51.76a1,1,0,0,0-.33-1.16L33.28,30.82a1,1,0,0,0-1.55.5,31.26,31.26,0,0,0-1.41,9.41C30.32,53.27,37.42,63.47,46.15,63.47ZM33.24,33.29l24.6,18.45c-2.53,6-7,9.73-11.7,9.73-7.62,0-13.83-9.31-13.83-20.75A29.65,29.65,0,0,1,33.24,33.29Z"/><rect class="cls-1" x="46.99" y="18.19" width="2" height="38.16" transform="translate(-10.53 53.6) rotate(-53.43)"/><rect class="cls-1" x="54.66" y="22.03" width="2" height="21.93" transform="translate(-4.58 56.61) rotate(-52.07)"/><path class="cls-1" d="M61.41,31.7C59.17,22.31,53.18,16,46.51,16a11.08,11.08,0,0,0-4.4.93l-1.55.67,21.51,16.9ZM44.6,18.21A8.75,8.75,0,0,1,46.51,18c5,0,9.67,4.4,12.08,11.21Z"/><rect class="cls-1" x="54.16" y="26.55" width="2" height="22.64" transform="translate(-7.94 60.1) rotate(-53.88)"/><path class="cls-1" d="M24.3,44.49a3.16,3.16,0,0,0-.55-4.44,2.22,2.22,0,0,0-3,.23l-5.86,6.2a1,1,0,0,0-.13.17L10.91,53a4.62,4.62,0,0,0-.6,3.28c.56,2.89,1.46,7.62,1.53,8.21a1.59,1.59,0,0,1-.37,1.05l-1.21,1.42a2.11,2.11,0,0,0-1-.2,2.06,2.06,0,0,0-1.41.72L6.27,69.3a2.09,2.09,0,0,0,.23,2.93l7.62,6.48a2.05,2.05,0,0,0,1.34.5h.16A2.05,2.05,0,0,0,17,78.48l1.56-1.84a2.08,2.08,0,0,0-.07-2.76l3.4-3.73a9.19,9.19,0,0,0,2.36-7.41l-.88-6.85a3.14,3.14,0,0,0-1.09-2.15A3.1,3.1,0,0,0,20,53l-.29,0,.71-3.6Zm-8.78,32.7h-.1L7.8,70.71a.08.08,0,0,1,0-.11l1.56-1.84h.1l7.63,6.48a.08.08,0,0,1,0,.11ZM20.18,55a1.1,1.1,0,0,1,.83.27,1.19,1.19,0,0,1,.4.84L22.3,63a7.2,7.2,0,0,1-1.85,5.8L17,72.55l-5.15-4.37L13,66.82a3.59,3.59,0,0,0,.84-2.36h0v0h0c0-.15-.07-.83-1.57-8.54A2.62,2.62,0,0,1,12.62,54l3.82-6.25,5.79-6.13a.22.22,0,0,1,.3,0,1.16,1.16,0,0,1,.2,1.63l-4,5.13a1,1,0,0,0-.19.42l-1.28,6.47s0,0,0,0v.06l0,.22a5.67,5.67,0,0,0,0,1.44l.7,5a1,1,0,1,0,2-.28l-.7-5a3.67,3.67,0,0,1,0-.93V55.7A1.13,1.13,0,0,1,20.18,55Z"/><path class="cls-1" d="M87.17,67.47a2,2,0,0,0-2.45-.53l-1.2-1.42a1.58,1.58,0,0,1-.37-1c.07-.59,1-5.32,1.53-8.22a4.61,4.61,0,0,0-.6-3.27l-3.87-6.33a1,1,0,0,0-.13-.17l-5.86-6.2a2.22,2.22,0,0,0-3-.23,3.16,3.16,0,0,0-.55,4.44l3.85,4.94.71,3.6L75,53a3.15,3.15,0,0,0-3.38,2.85l-.88,6.9a9.2,9.2,0,0,0,2.36,7.41l3.42,3.71a2.08,2.08,0,0,0-.09,2.78l1.56,1.84a2.05,2.05,0,0,0,1.41.72h.16a2,2,0,0,0,1.34-.5l7.63-6.48a2.09,2.09,0,0,0,.23-2.92ZM72.69,63l.89-7a1.15,1.15,0,0,1,.4-.79,1.13,1.13,0,0,1,1.8.45v.11a3.69,3.69,0,0,1,0,.93l-.7,5a1,1,0,1,0,2,.28l.7-5a5.69,5.69,0,0,0,0-1.44l0-.22v-.06s0,0,0,0l-1.28-6.47a1,1,0,0,0-.19-.42l-4-5.13a1.16,1.16,0,0,1,.2-1.63.22.22,0,0,1,.3,0l5.79,6.13L82.38,54a2.61,2.61,0,0,1,.34,1.85c-1.5,7.72-1.57,8.4-1.57,8.55h0v0h0A3.58,3.58,0,0,0,82,66.82l1.15,1.36L78,72.55,74.54,68.8A7.2,7.2,0,0,1,72.69,63ZM87.2,70.71l-7.63,6.48h-.1l-1.56-1.84a.08.08,0,0,1,0-.11l7.63-6.48h.1l1.56,1.84A.08.08,0,0,1,87.2,70.71Z"/></svg>