<svg id="blue_svg_2px" xmlns="http://www.w3.org/2000/svg" viewBox="0 0 96 96"><defs><style>.cls-1{fill:#00008f;}</style></defs><title>wheelchair</title><path class="cls-1" d="M10,61.13a24.81,24.81,0,1,0,49.33-3.77H71l2,7a11,11,0,1,0,1.94-.49L73,57.35h8.2a1,1,0,0,0,0-2H68.86L66,46.61h6.35a4,4,0,0,0,0-8H64.12l-2.8-9.13a9,9,0,0,0-8.63-6.39H35.57L32.2,10.74a1,1,0,0,0-1-.74H15.76a1,1,0,0,0,0,2h7.57l6.72,24.72A24.89,24.89,0,0,0,10,61.13ZM85,74.26a8.52,8.52,0,1,1-8.52-8.55A8.55,8.55,0,0,1,85,74.26ZM34.81,84A22.87,22.87,0,1,1,57.62,61.13,22.87,22.87,0,0,1,34.81,84ZM66.76,55.35H58.94a24.79,24.79,0,0,0-4-8.74h8.91Zm7.53-12.73a2,2,0,0,1-2,2h-19a25,25,0,0,0-4.48-4H72.31A2,2,0,0,1,74.29,42.63Zm-21.6-17.5a7,7,0,0,1,6.72,5L62,38.65H45.4a24.56,24.56,0,0,0-6.15-2L36.12,25.13ZM25.4,12h5.07L37.1,36.37c-.76-.07-1.52-.11-2.29-.11a24.89,24.89,0,0,0-2.76.16Z"/><path class="cls-1" d="M76.48,78.84a4.58,4.58,0,1,0-4.57-4.58A4.58,4.58,0,0,0,76.48,78.84Zm0-7.16a2.58,2.58,0,1,1-2.57,2.58A2.58,2.58,0,0,1,76.48,71.68Z"/><path class="cls-1" d="M48.14,47.76l0,0a18.79,18.79,0,0,0-26.57,0l0,0,0,0a18.9,18.9,0,0,0,0,26.64l0,0,0,0a18.79,18.79,0,0,0,26.57,0l0,0,0,0a18.9,18.9,0,0,0,0-26.64ZM47.4,72.33l-7-7a6.93,6.93,0,0,0,1.31-3.16h9.93A16.83,16.83,0,0,1,47.4,72.33ZM18,62.13h9.93a6.93,6.93,0,0,0,1.31,3.16l-7,7A16.83,16.83,0,0,1,18,62.13Zm4.22-12.2,7,7a6.93,6.93,0,0,0-1.31,3.16H18A16.83,16.83,0,0,1,22.22,49.92ZM34.81,66.1a5,5,0,1,1,5-5A5,5,0,0,1,34.81,66.1ZM39,55.55a6.9,6.9,0,0,0-3.15-1.31v-10A16.74,16.74,0,0,1,46,48.51Zm-5.15-1.31a6.9,6.9,0,0,0-3.15,1.31l-7-7a16.74,16.74,0,0,1,10.18-4.23ZM30.66,66.71A6.9,6.9,0,0,0,33.81,68V78a16.74,16.74,0,0,1-10.18-4.23ZM35.81,68A6.9,6.9,0,0,0,39,66.71l7,7A16.74,16.74,0,0,1,35.81,78Zm5.87-7.89A6.93,6.93,0,0,0,40.37,57l7-7a16.83,16.83,0,0,1,4.22,10.2Z"/></svg>